<svg version="1.0" xmlns="http://www.w3.org/2000/svg"
 width="520.000000pt" height="128.000000pt" viewBox="0 0 520.000000 128.000000"
 preserveAspectRatio="xMidYMid meet">

<g transform="translate(0.000000,128.000000) scale(0.100000,-0.100000)"
fill="#fff" stroke="none">
<path d="M501 1265 c-234 -51 -438 -257 -486 -490 -94 -454 307 -856 759 -760
239 50 441 252 491 491 64 303 -97 606 -384 725 -95 39 -120 43 -119 22 0 -10
-33 -79 -74 -153 -41 -74 -89 -162 -108 -195 -18 -33 -36 -64 -40 -70 -11 -15
-70 -125 -70 -131 0 -2 50 -4 110 -4 l110 0 0 -181 c0 -140 3 -180 13 -177 6
2 50 78 97 169 47 91 89 171 93 177 5 7 26 12 48 12 37 0 39 -2 39 -30 0 -34
7 -22 -189 -348 -83 -139 -157 -263 -163 -277 -6 -13 -15 -22 -19 -19 -5 3 -9
135 -9 295 l0 289 -135 0 c-74 0 -135 4 -135 9 0 5 36 73 80 152 44 78 80 144
80 145 0 2 20 38 45 80 25 41 45 77 45 79 0 2 25 47 55 100 30 54 55 99 55
101 0 9 -131 1 -189 -11z"/>
<path d="M1580 670 l0 -300 80 0 80 0 0 36 0 35 34 -35 c31 -34 38 -36 93 -36
75 0 117 26 151 92 33 65 34 196 2 263 -30 62 -80 95 -143 95 -56 0 -83 -11
-114 -48 l-23 -27 0 113 0 112 -80 0 -80 0 0 -300z m276 9 c14 -16 19 -36 19
-84 0 -73 -20 -105 -66 -105 -42 0 -69 41 -69 105 0 90 67 138 116 84z"/>
<path d="M3130 875 c0 -54 0 -55 -30 -55 l-30 0 0 -60 0 -60 30 0 30 0 0 -130
c0 -127 0 -130 28 -160 33 -37 86 -52 160 -43 57 6 58 9 46 86 -6 34 -9 37
-40 37 l-34 0 0 105 0 105 35 0 35 0 0 60 0 60 -35 0 -35 0 0 55 0 55 -80 0
-80 0 0 -55z"/>
<path d="M2209 797 c-24 -13 -57 -43 -74 -66 -26 -38 -30 -53 -33 -126 -4 -75
-1 -89 22 -132 32 -57 73 -88 141 -103 100 -23 206 11 252 79 28 42 23 47 -59
56 -49 6 -63 4 -79 -11 -40 -36 -107 -13 -124 44 l-6 22 145 0 146 0 0 55 c0
84 -39 148 -112 186 -55 28 -161 26 -219 -4z m163 -104 c10 -9 18 -24 18 -35
0 -16 -8 -18 -65 -18 -54 0 -65 3 -65 17 0 46 74 71 112 36z"/>
<path d="M2683 801 c-70 -32 -99 -104 -70 -173 19 -46 67 -71 164 -88 78 -13
104 -30 83 -55 -19 -23 -65 -18 -100 11 -29 25 -34 26 -98 18 -59 -8 -67 -11
-64 -29 13 -73 98 -119 217 -119 68 0 88 4 131 28 59 32 84 69 84 123 0 73
-42 105 -168 129 -42 8 -84 21 -92 30 -13 14 -13 17 5 30 24 18 74 11 92 -12
10 -14 22 -15 80 -8 60 8 68 11 65 29 -5 29 -41 65 -87 86 -56 26 -185 26
-242 0z"/>
<path d="M3519 797 c-24 -13 -57 -43 -74 -66 -25 -36 -30 -54 -33 -116 -5 -83
8 -132 45 -176 82 -97 262 -102 346 -10 30 33 56 95 45 106 -1 2 -35 6 -74 10
-71 7 -71 7 -78 -19 -14 -54 -84 -59 -111 -6 -18 34 -20 109 -4 143 6 14 23
30 37 37 21 9 30 8 51 -8 14 -10 27 -29 29 -41 2 -15 9 -20 20 -17 9 3 43 8
75 12 61 7 65 12 46 61 -27 73 -99 112 -205 113 -55 0 -81 -5 -115 -23z"/>
<path d="M4004 801 c-38 -17 -73 -54 -87 -92 -4 -13 3 -18 31 -23 63 -10 105
-7 123 10 23 21 66 21 86 1 23 -23 9 -45 -34 -52 -156 -24 -187 -37 -209 -92
-18 -42 -18 -87 1 -123 39 -76 180 -89 241 -23 l24 26 0 -32 0 -31 76 0 75 0
-3 179 c-3 175 -4 180 -28 207 -14 14 -43 35 -65 45 -55 25 -175 25 -231 0z
m166 -269 c0 -45 -35 -69 -92 -64 -9 1 -20 11 -23 23 -9 26 18 56 54 62 59 9
61 8 61 -21z"/>
<path d="M4410 595 l0 -225 80 0 80 0 0 131 0 131 30 30 c26 25 37 29 70 26
l40 -4 0 68 0 68 -38 0 c-44 0 -65 -13 -87 -55 l-15 -30 0 43 0 42 -80 0 -80
0 0 -225z"/>
<path d="M4843 801 c-70 -32 -99 -104 -70 -173 19 -46 67 -71 164 -88 78 -13
104 -30 83 -55 -19 -23 -65 -18 -100 11 -29 25 -34 26 -98 18 -59 -8 -67 -11
-64 -29 13 -73 98 -119 217 -119 68 0 88 4 131 28 59 32 84 69 84 123 0 73
-42 105 -168 129 -42 8 -84 21 -92 30 -13 14 -13 17 5 30 24 18 74 11 92 -12
10 -14 22 -15 80 -8 60 8 68 11 65 29 -5 29 -41 65 -87 86 -56 26 -185 26
-242 0z"/>
</g>
</svg>
